{"title":"Justin.And.The.Knights.Of.Valour.2013.720p.BRRip.x264-Fastbet99","uid":9357811,"size":1237182073,"categoryP":"video","categoryS":"hd___movies","magnet":"?xt=urn:btih:904cf7cb5d598acc75fbf23f002d61ee897f5b72&amp;dn=Justin.And.The.Knights.Of.Valour.2013.720p.BRRip.x264-Fastbet99&amp;tr=udp%3A%2F%2Ftracker.openbittorrent.com%3A80&amp;tr=udp%3A%2F%2Fopen.demonii.com%3A1337&amp;tr=udp%3A%2F%2Ftracker.coppersurfer.tk%3A6969&amp;tr=udp%3A%2F%2Fexodus.desync.com%3A6969","seeders":0,"leechers":0,"uploader":"Fastbet99","files":-1,"time":1387246814,"description":"Justin And The Knights Of Valour (2013)\n\nIMDB Info\t\t\t\t : http://www.imdb.com/title/tt1639826\n\nSource\t\t\t\t\t : ENCOUNTERS (Thanks)\nComplete name                            : Justin.And.The.Knights.Of.Valour.2013.720p.BRRip.x264-Fastbet99.mp4\nFormat                                   : MPEG-4\nFormat profile                           : Base Media\nCodec ID                                 : isom\nFile size                                : 1.15 GiB\nDuration                                 : 1h 36mn\nOverall bit rate mode                    : Variable\nOverall bit rate                         : 1 715 Kbps\n\nVideo\nID                                       : 1\nFormat                                   : AVC\nFormat/Info                              : Advanced Video Codec\nFormat profile                           : &lt;a class=&quot;__cf_email__&quot; href=&quot;/cdn-cgi/l/email-protection&quot; data-cfemail=&quot;a0e8c9c7c8e0ec948e91&quot;&gt;[email&amp;#160;protected]&lt;/a&gt;&lt;script data-cfhash='f9e31' type=&quot;text/javascript&quot;&gt;\n/* &lt;![CDATA[ */!function(){try{var t=&quot;currentScript&quot;in document?document.currentScript:function(){for(var t=document.getElementsByTagName(&quot;script&quot;),e=t.length;e--;)if(t[e].getAttribute(&quot;data-cfhash&quot;))return t[e]}();if(t&amp;&amp;t.previousSibling){var e,r,n,i,c=t.previousSibling,a=c.getAttribute(&quot;data-cfemail&quot;);if(a){for(e=&quot;&quot;,r=parseInt(a.substr(0,2),16),n=2;a.length-n;n+=2)i=parseInt(a.substr(n,2),16)^r,e+=String.fromCharCode(i);e=document.createTextNode(e),c.parentNode.replaceChild(e,c)}t.parentNode.removeChild(t);}}catch(u){}}()/* ]]&gt; */&lt;/script&gt;\nFormat settings, CABAC                   : Yes\nFormat settings, ReFrames                : 4 frames\nCodec ID                                 : avc1\nCodec ID/Info                            : Advanced Video Coding\nDuration                                 : 1h 36mn\nBit rate                                 : 1 615 Kbps\nMaximum bit rate                         : 8 626 Kbps\nWidth                                    : 1 280 pixels\nHeight                                   : 544 pixels\nDisplay aspect ratio                     : 2.35:1\nFrame rate mode                          : Constant\nFrame rate                               : 23.976 fps\nColor space                              : YUV\nChroma subsampling                       : 4:2:0\nBit depth                                : 8 bits\nScan type                                : Progressive\nBits/(Pixel*Frame)                       : 0.097\nStream size                              : 1.08 GiB (94%)\nWriting library                          : x264 core 138 r2358 9e941d1\n\nAudio\nID                                       : 2\nFormat                                   : AAC\nFormat/Info                              : Advanced Audio Codec\nFormat profile                           : LC\nCodec ID                                 : 40\nDuration                                 : 1h 36mn\nBit rate mode                            : Variable\nBit rate                                 : 96.0 Kbps\nMaximum bit rate                         : 147 Kbps\nChannel count                            : 2 channels\nChannel positions                        : Front: L R\nSampling rate                            : 48.0 KHz\nCompression mode                         : Lossy\nStream size                              : 65.9 MiB (6%)\nLanguage                                 : English\nEncoder\t\t\t\t\t : Fastbet99\n\nScreenshots\n &lt;a href=&quot;\nhttp://lookpic.com/O/i2/462/FNay42vv.jpeg&quot; rel=&quot;nofollow&quot; target=&quot;_NEW&quot;&gt;\nhttp://lookpic.com/O/i2/462/FNay42vv.jpeg&lt;/a&gt;\n\nStairway To heaven - Help People With Keep Seed As Long You Can","torrent":{"xt":"urn:btih:904cf7cb5d598acc75fbf23f002d61ee897f5b72","amp;dn":"Justin.And.The.Knights.Of.Valour.2013.720p.BRRip.x264-Fastbet99","amp;tr":["udp%3A%2F%2Ftracker.openbittorrent.com%3A80","udp%3A%2F%2Fopen.demonii.com%3A1337","udp%3A%2F%2Ftracker.coppersurfer.tk%3A6969","udp%3A%2F%2Fexodus.desync.com%3A6969"],"infoHash":"904cf7cb5d598acc75fbf23f002d61ee897f5b72","infoHashBuffer":{"type":"Buffer","data":[144,76,247,203,93,89,138,204,117,251,242,63,0,45,97,238,137,127,91,114]},"announce":[],"urlList":[]}}